<?xml version="1.0" encoding="utf-8"?>
<!-- Generator: Adobe Illustrator 16.0.0, SVG Export Plug-In . SVG Version: 6.00 Build 0)  -->
<!DOCTYPE svg PUBLIC "-//W3C//DTD SVG 1.1//EN" "http://www.w3.org/Graphics/SVG/1.1/DTD/svg11.dtd">
<svg version="1.1" id="Layer_1" xmlns="http://www.w3.org/2000/svg" xmlns:xlink="http://www.w3.org/1999/xlink" x="0px" y="0px"
	 width="33px" height="32.658px" viewBox="0 0 33 32.658" enable-background="new 0 0 33 32.658" xml:space="preserve">
<g>
	<path fill="#FFFFFF" d="M0,15.169h15.169V0H0V15.169z M3.072,3.071h9.027v9.027H3.072V3.071z"/>
	<rect x="4.685" y="4.684" fill="#FFFFFF" width="5.802" height="5.801"/>
	<path fill="#FFFFFF" d="M0,32.658h15.169V17.49H0V32.658z M3.072,20.56h9.027v9.025H3.072V20.56z"/>
	<rect x="4.685" y="22.172" fill="#FFFFFF" width="5.802" height="5.801"/>
	<path fill="#FFFFFF" d="M17.831,0v15.169H33V0H17.831z M29.928,12.098h-9.026V3.071h9.026V12.098L29.928,12.098z"/>
	<rect x="22.515" y="4.684" fill="#FFFFFF" width="5.8" height="5.801"/>
	<rect x="17.831" y="17.49" fill="#FFFFFF" width="10.057" height="3.232"/>
	<rect x="17.831" y="22.172" fill="#FFFFFF" width="3.232" height="10.485"/>
	<polygon fill="#FFFFFF" points="29.553,27.414 25.586,27.414 25.586,29.424 22.259,29.424 22.259,32.658 25.927,32.658 
		25.927,30.648 29.329,30.648 29.329,32.658 33,32.658 33,29.424 29.553,29.424 	"/>
	<polygon fill="#FFFFFF" points="29.766,22.092 23.964,22.092 23.964,25.327 29.766,25.327 30.019,25.327 33,25.327 33,17.49 
		29.766,17.49 	"/>
</g>
</svg>
